<svg xmlns="http://www.w3.org/2000/svg" width="990" height="765"><path d="M406.907 125.405h37.557v37.557h-37.557zm0 92.733h37.557v37.557h-37.557zm46.366-139.099h37.557v37.557h-37.557zm-46.366 92.731h37.557v37.558h-37.557zm46.366 92.734h37.557v37.557h-37.557zm0-139.099h37.557v37.557h-37.557zm0 46.365h37.557v37.558h-37.557zm0 46.368h37.557v37.557h-37.557zm46.367 92.732h37.557v37.557H499.64zm0-46.366h37.557v37.557H499.64zm0-92.734h37.557v37.558H499.64zm0-92.731h37.557v37.557H499.64zm0-46.367h37.557v37.557H499.64zm46.366 92.733h37.557v37.557h-37.557zm0 92.733h37.557v37.557h-37.557zm-304.717 181.21h23.354v23.354h-23.354zm0 28.832h23.354v23.354h-23.354zm0 28.832h23.354v23.354h-23.354zm0 28.831h23.354v23.354h-23.354zm0 28.832h23.354v23.354h-23.354zm28.831-115.327h23.354v23.354H270.12zm28.832 0h23.354v23.354h-23.354zm0 28.832h23.354v23.354h-23.354zm-28.832 28.832h23.354v23.354H270.12zm28.832 28.831h23.354v23.354h-23.354zm0 28.832h23.354v23.354h-23.354zm57.664-115.327h23.354v23.354h-23.354zm28.831 0h23.354v23.354h-23.354zm-28.831 28.832h23.354v23.354h-23.354zm0 28.832h23.354v23.354h-23.354zm0 28.831h23.354v23.354h-23.354zm0 28.832h23.354v23.354h-23.354zm28.831 0h23.354v23.354h-23.354zm28.832 0h23.354v23.354h-23.354zm0-28.832h23.354v23.354h-23.354zm0-28.831h23.354v23.354h-23.354zm0-28.832h23.354v23.354h-23.354zm0-28.832h23.354v23.354h-23.354zm57.664 0h23.354v23.354h-23.354zm0 28.832h23.354v23.354h-23.354zm0 28.832h23.354v23.354h-23.354zm0 28.831h23.354v23.354h-23.354zm0 28.832h23.354v23.354h-23.354zm28.832 0h23.354v23.354h-23.354zm28.831 0h23.354v23.354h-23.354zm0-28.832h23.354v23.354h-23.354zm0-28.831h23.354v23.354h-23.354zm-28.831-57.664h23.354v23.354h-23.354zm28.831 0h23.354v23.354h-23.354zm57.664 0h23.354v23.354H587.27zm0 28.832h23.354v23.354H587.27zm0 28.832h23.354v23.354H587.27zm0 28.831h23.354v23.354H587.27zm0 28.832h23.354v23.354H587.27zm28.832 0h23.354v23.354h-23.354zm28.832 0h23.354v23.354h-23.354zm0-28.832h23.354v23.354h-23.354zm0-28.831h23.354v23.354h-23.354zm0-28.832h23.354v23.354h-23.354zm0-28.832h23.354v23.354h-23.354zm57.663 0h23.354v23.354h-23.354zm0 28.832h23.354v23.354h-23.354zm0 28.832h23.354v23.354h-23.354zm0 28.831h23.354v23.354h-23.354zm0 28.832h23.354v23.354h-23.354zm28.832-115.327h23.354v23.354h-23.354zm28.832 0h23.354v23.354h-23.354zm-28.832 57.664h23.354v23.354h-23.354zm0 57.663h23.354v23.354h-23.354zm28.832 0h23.354v23.354h-23.354zM89.226 614.869h23.354v23.354H89.226zm0 28.831h23.354v23.355H89.226zm0 28.833h23.354v23.354H89.226zm0 28.832h23.354v23.354H89.226zm0 28.831h23.354v23.354H89.226zm28.832-57.663h23.354v23.354h-23.354zm28.832 0h23.354v23.354H146.89zm0-28.833h23.354v23.355H146.89zm0-28.831h23.354v23.354H146.89zm0 86.496h23.354v23.354H146.89zm0 28.831h23.354v23.354H146.89zm57.664-115.327h23.354v23.354h-23.354zm0 28.831h23.354v23.355h-23.354zm0 28.833h23.354v23.354h-23.354zm0 28.832h23.354v23.354h-23.354zm0 28.831h23.354v23.354h-23.354zm28.831-57.663h23.354v23.354h-23.354zm0-57.664h23.354v23.354h-23.354zm28.832 0h23.354v23.354h-23.354zm0 28.831h23.354v23.355h-23.354zm0 28.833h23.354v23.354h-23.354zm0 28.832h23.354v23.354h-23.354zm0 28.831h23.354v23.354h-23.354zm57.664-115.327h23.354v23.354h-23.354zm0 28.831h23.354v23.355h-23.354zm0 28.833h23.354v23.354h-23.354zm0 28.832h23.354v23.354h-23.354zm0 28.831h23.354v23.354h-23.354zm28.831 0h23.354v23.354h-23.354zm28.832 0h23.354v23.354h-23.354zm-28.832-115.327h23.354v23.354h-23.354zm28.832 0h23.354v23.354h-23.354zm57.664 0h23.354v23.354h-23.354zm0 28.831h23.354v23.355h-23.354zm0 28.833h23.354v23.354h-23.354zm0 28.832h23.354v23.354h-23.354zm0 28.831h23.354v23.354h-23.354zm28.831-57.663h23.354v23.354h-23.354zm28.832-28.833h23.354v23.355h-23.354zm0-28.831h23.354v23.354h-23.354zm0 86.496h23.354v23.354h-23.354zm0 28.831h23.354v23.354h-23.354zm115.327-115.327h23.354v23.354h-23.354zm0 28.831h23.354v23.355h-23.354zm0 28.833h23.354v23.354h-23.354zm0 28.832h23.354v23.354h-23.354zm0 28.831h23.354v23.354h-23.354zm28.832 0h23.354v23.354H637.03zm28.832 0h23.354v23.354h-23.354zm57.664 0h23.354v23.354h-23.354zm0-28.831h23.354v23.354h-23.354zm0-28.832h23.354v23.354h-23.354zm0-28.833h23.354v23.355h-23.354zm0-28.831h23.354v23.354h-23.354zm28.831 0h23.354v23.354h-23.354zm28.832 0h23.354v23.354h-23.354zm0 28.831h23.354v23.355h-23.354zm-28.832 28.833h23.354v23.354h-23.354zm28.832 0h23.354v23.354h-23.354zm0 28.832h23.354v23.354h-23.354zm0 28.831h23.354v23.354h-23.354zm57.664-115.327h23.354v23.354h-23.354zm0 28.831h23.354v23.355h-23.354zm0 28.833h23.354v23.354h-23.354zm0 28.832h23.354v23.354h-23.354zm0 28.831h23.354v23.354h-23.354zm28.831-115.327h23.354v23.354h-23.354zm28.832 0h23.354v23.354h-23.354zm-28.832 57.664h23.354v23.354h-23.354zm28.832-28.833h23.354v23.355h-23.354zm0 57.665h23.354v23.354h-23.354zm0 28.831h23.354v23.354h-23.354zm-28.832 0h23.354v23.354h-23.354z" fill="#ff5c00"/></svg>