<svg xmlns="http://www.w3.org/2000/svg" height="238.51" viewBox="0 0 178.96326 238.51363" width="178.96"><path d="M12.291 1.133c-5.827 0-10.562 4.741-10.562 10.6v148.06c0 5.85 4.735 10.6 10.562 10.6H167.7c5.83 0 10.56-4.75 10.56-10.6V11.734c0-5.855-4.73-10.596-10.56-10.596H12.29zm-.098 174.8c-6.018 0-10.892 5.92-10.892 13.21v35.28c0 7.31 4.874 13.23 10.892 13.23h155.17c6.02 0 10.88-5.92 10.88-13.23v-35.28c0-7.29-4.86-13.21-10.88-13.21H12.193z"/><path d="M164.925 5.237H14.65a9.267 9.267 0 0 0-9.273 9.277v141.45c0 5.121 4.144 9.276 9.273 9.276h150.275a9.27 9.27 0 0 0 9.275-9.276V14.514a9.266 9.266 0 0 0-9.275-9.277" fill="#ffcb05"/><path d="M159.462 10.987H19.937c-5.117 0-9.272 4.153-9.272 9.275v130.413c0 5.122 4.155 9.277 9.272 9.277h139.525c5.128 0 9.27-4.155 9.27-9.277V20.262c0-5.122-4.142-9.275-9.27-9.275"/><path d="M90.168 18.984L74.887 67.875l-52.225.277 42.231 29.159L49.326 146.2l40.561-29.16 41.953 29.44L116 97.311l40.56-29.159h-50.57L90.168 18.984zm-75.352 161.35c-5.118 0-9.265 4.15-9.265 9.27v34.07c0 5.12 4.147 9.26 9.265 9.26h150.52c5.11 0 9.26-4.14 9.26-9.26v-34.07c0-5.12-4.15-9.27-9.26-9.27H14.816z" fill="#ffcb05"/><path d="M89.887 35.926L79.604 73.98l-37.221-.277 29.445 21.111L60.434 131.2l28.896-22.22 32.23 23.06-13.34-35.837 30.56-22.223h-38.34L89.887 35.926zm-74.321 148.93a5.562 5.562 0 0 0-5.562 5.56v32.88c0 3.07 2.491 5.55 5.562 5.55h148.39c3.08 0 5.55-2.48 5.55-5.55v-32.88c0-3.07-2.47-5.56-5.55-5.56H15.566z"/><path d="M89.996 49.379l-7.689 28.445-27.83-.205 22.017 15.772-8.515 27.199 21.599-16.61 24.082 17.24-9.97-26.788 22.85-16.608H97.873l-7.877-28.445zm-7.293 143.98l-3.724 27.83h6.261l.338-5.07h3.471l.506 5.07h6.175l-3.974-27.83h-9.053zm-49.41 0v22.59h-2.451v-22.51l-6.348-.07v24.01l4.063 3.9h7.189l3.893-4.07v-23.85h-6.346zm104.28.04l5.11 16.03.13 11.8h6.26v-11.8l5.21-16.03h-6.09l-2.25 9.73-2.2-9.73h-6.17zm-40.062.04l.084 27.92 6.088-.08v-11.17h2.63l.08 11.17 5.76.08v-11.25l-2.88-2.71 2.88-2.62v-7.45l-4.07-3.89H97.511zm-40.778 0l-3.767 3.77v8.67l3.998 4h4.674v5.98h-2.539v-3.55h-6.26v4.99l3.978 3.98h6.936l4.062-4.07v-8.54l-4.146-4.14h-4.48v-5.84h2.281l.084 3.63h6.008v-4.99l-4.231-3.89h-6.598zm71.32 0l-2.2 13.37-2.29-13.28h-7.27l-.08 27.75h5.67v-17.69l2.7 17.69h2.45l2.71-17.69v17.69h5.76l-.17-27.84h-7.28zm-57.023 22.51l.082 5.24h6.094v-5.24H71.03zm-27.836.08l-.082 5.25h6.176v-5.25h-6.094z" fill="#fff"/><path d="M103.68 198.77v6.09l2.63-.08v-6.01h-2.63zm-16.494.59l-1.102 11.43h2.541l-1.439-11.43z"/></svg>