<svg xmlns="http://www.w3.org/2000/svg" width="210" height="325"><path d="M6.407 103.267h37.557v37.557H6.407zm0 92.733h37.557v37.557H6.407zM52.773 56.901H90.33v37.557H52.773zM6.407 149.633h37.557v37.557H6.407zm46.366 92.733H90.33v37.557H52.773zm0-139.099H90.33v37.557H52.773zm0 46.366H90.33v37.557H52.773zm0 46.367H90.33v37.557H52.773zm46.367 92.732h37.557v37.557H99.14zm0-46.366h37.557v37.557H99.14zm0-92.733h37.557v37.557H99.14zm0-92.732h37.557v37.557H99.14zm0-46.367h37.557v37.557H99.14zm46.366 92.733h37.557v37.557h-37.557zm0 92.733h37.557v37.557h-37.557z" fill="#ff5c00"/></svg>